<svg width="628" height="211" viewBox="0 0 628 211" fill="none" xmlns="http://www.w3.org/2000/svg">
<rect x="450" y="39" width="152" height="152" rx="8" fill="#E95838"/>
<rect y="39" width="152" height="152" rx="8" fill="#E95838"/>
<rect x="236" width="151" height="151" rx="75.5" fill="#DB3A34"/>
<path d="M35.9898 178.838L8.66728 83.2671L26.9623 78.0368L86.9302 133.851L77.2366 136.622L97.958 57.7401L116.117 52.5488L143.712 148.042L122.96 153.975L104.595 90.2542L108.418 89.1613L91.8094 151.951L81.8427 154.801L33.8723 110.473L38.5144 109.146L56.7424 172.905L35.9898 178.838Z" fill="black"/>
<path d="M410.066 153.704C402.209 153.704 394.919 152.426 388.198 149.87C381.571 147.314 375.797 143.717 370.874 139.078C366.046 134.439 362.259 128.996 359.514 122.748C356.863 116.5 355.538 109.684 355.538 102.3C355.538 94.916 356.863 88.1 359.514 81.852C362.259 75.604 366.093 70.1607 371.016 65.522C375.939 60.8833 381.713 57.286 388.34 54.73C394.967 52.174 402.161 50.896 409.924 50.896C417.781 50.896 424.976 52.174 431.508 54.73C438.135 57.286 443.862 60.8833 448.69 65.522C453.613 70.1607 457.447 75.604 460.192 81.852C462.937 88.0053 464.31 94.8213 464.31 102.3C464.31 109.684 462.937 116.547 460.192 122.89C457.447 129.138 453.613 134.581 448.69 139.22C443.862 143.764 438.135 147.314 431.508 149.87C424.976 152.426 417.829 153.704 410.066 153.704ZM409.924 134.108C414.373 134.108 418.444 133.351 422.136 131.836C425.923 130.321 429.236 128.144 432.076 125.304C434.916 122.464 437.093 119.103 438.608 115.222C440.217 111.341 441.022 107.033 441.022 102.3C441.022 97.5667 440.217 93.2593 438.608 89.378C437.093 85.4967 434.916 82.136 432.076 79.296C429.331 76.456 426.065 74.2787 422.278 72.764C418.491 71.2493 414.373 70.492 409.924 70.492C405.475 70.492 401.357 71.2493 397.57 72.764C393.878 74.2787 390.612 76.456 387.772 79.296C384.932 82.136 382.707 85.4967 381.098 89.378C379.583 93.2593 378.826 97.5667 378.826 102.3C378.826 106.939 379.583 111.246 381.098 115.222C382.707 119.103 384.885 122.464 387.63 125.304C390.47 128.144 393.783 130.321 397.57 131.836C401.357 133.351 405.475 134.108 409.924 134.108Z" fill="black"/>
<path d="M303.376 130V49.344H271.568V30.6H358.188V49.344H326.38V130H303.376Z" fill="black"/>
<path d="M510.042 160.638C502.502 158.111 495.607 154.701 489.358 150.41C483.138 146.029 478.461 141.516 475.326 136.87L488.237 122.927C491.313 127.153 495.273 131.126 500.116 134.846C505.079 138.507 510.388 141.285 516.043 143.18C520.352 144.625 523.943 145.379 526.816 145.444C529.81 145.449 532.191 144.899 533.959 143.794C535.727 142.69 536.942 141.15 537.604 139.175C538.447 136.662 538.121 134.356 536.628 132.258C535.165 130.071 532.968 127.986 530.037 126.006C527.137 123.935 523.848 121.834 520.169 119.702C516.61 117.511 513.067 115.125 509.539 112.545C506.1 109.994 503.096 107.19 500.527 104.132C497.958 101.075 496.182 97.584 495.201 93.6607C494.31 89.7675 494.706 85.3077 496.391 80.2812C498.196 74.8957 501.272 70.4853 505.619 67.0499C510.085 63.5549 515.672 61.4837 522.379 60.8364C529.205 60.1294 537.062 61.2653 545.948 64.2439C551.872 66.2297 557.465 68.9034 562.728 72.2651C568.022 75.5371 572.401 79.3015 575.866 83.5583L563.583 97.8621C560.028 93.8746 556.246 90.5603 552.239 87.9191C548.262 85.1882 544.165 83.1157 539.946 81.7016C535.727 80.2875 532.106 79.6228 529.083 79.7076C526.059 79.7923 523.693 80.4469 521.984 81.6714C520.306 82.8062 519.121 84.4058 518.429 86.4702C517.616 88.8937 517.942 91.1993 519.405 93.3871C520.898 95.4852 523.11 97.5246 526.041 99.5053C528.971 101.486 532.216 103.572 535.774 105.763C539.423 107.985 542.981 110.326 546.45 112.786C550.008 115.277 553.072 118.051 555.641 121.109C558.211 124.167 559.941 127.643 560.833 131.536C561.814 135.459 561.477 139.889 559.822 144.826C558.047 150.122 554.941 154.472 550.505 157.877C546.069 161.283 540.437 163.339 533.611 164.046C526.874 164.783 519.017 163.647 510.042 160.638Z" fill="black"/>
<path d="M212.948 160.704C198.843 160.704 187.814 156.775 179.862 148.918C171.91 141.061 167.934 129.843 167.934 115.264V59.6H190.938V114.412C190.938 123.879 192.879 130.695 196.76 134.86C200.641 139.025 206.085 141.108 213.09 141.108C220.095 141.108 225.539 139.025 229.42 134.86C233.301 130.695 235.242 123.879 235.242 114.412V59.6H257.962V115.264C257.962 129.843 253.986 141.061 246.034 148.918C238.082 156.775 227.053 160.704 212.948 160.704Z" fill="black"/>
</svg>
